<svg xmlns="http://www.w3.org/2000/svg" viewBox="0 0 1180 720" font-family="Segoe UI, Helvetica, Arial, sans-serif">
  <defs>
    <marker id="ad" markerWidth="10" markerHeight="10" refX="8" refY="3" orient="auto"><path d="M0,0 L8,3 L0,6 Z" fill="#334155"/></marker>
    <marker id="ag" markerWidth="10" markerHeight="10" refX="8" refY="3" orient="auto"><path d="M0,0 L8,3 L0,6 Z" fill="#22c55e"/></marker>
    <marker id="ab" markerWidth="10" markerHeight="10" refX="8" refY="3" orient="auto"><path d="M0,0 L8,3 L0,6 Z" fill="#4a9eed"/></marker>
    <marker id="ao" markerWidth="10" markerHeight="10" refX="8" refY="3" orient="auto"><path d="M0,0 L8,3 L0,6 Z" fill="#f59e0b"/></marker>
    <marker id="apu" markerWidth="10" markerHeight="10" refX="8" refY="3" orient="auto"><path d="M0,0 L8,3 L0,6 Z" fill="#8b5cf6"/></marker>
  </defs>
  <rect width="1180" height="720" fill="#ffffff"/>
  <text x="590" y="32" text-anchor="middle" font-size="22" font-weight="700" fill="#1e293b">D3 — CloudMart Security Model</text>

  <rect x="410" y="50" width="360" height="46" rx="8" fill="#ffe0e0" stroke="#ef4444"/>
  <text x="590" y="78" text-anchor="middle" font-size="14" fill="#1e293b">AWS WAF v2 (managed rules + rate-limit) on ALB</text>

  <rect x="40" y="112" width="430" height="420" rx="12" fill="#f0ecff" stroke="#8b5cf6" stroke-width="1.5"/>
  <text x="58" y="136" font-size="15" font-weight="600" fill="#7c3aed">NetworkPolicy: default-deny + explicit allow</text>
  <rect x="180" y="155" width="140" height="48" rx="8" fill="#d7f7dd" stroke="#22c55e"/>
  <text x="250" y="184" text-anchor="middle" font-size="14" fill="#1e293b">frontend</text>
  <rect x="70" y="258" width="150" height="48" rx="8" fill="#dceefb" stroke="#4a9eed"/>
  <text x="145" y="287" text-anchor="middle" font-size="13" fill="#1e293b">product-service</text>
  <rect x="290" y="258" width="150" height="48" rx="8" fill="#dceefb" stroke="#4a9eed"/>
  <text x="365" y="287" text-anchor="middle" font-size="13" fill="#1e293b">order-service</text>
  <rect x="70" y="360" width="150" height="48" rx="8" fill="#dceefb" stroke="#4a9eed"/>
  <text x="145" y="389" text-anchor="middle" font-size="13" fill="#1e293b">user-service</text>
  <rect x="290" y="360" width="150" height="48" rx="8" fill="#dceefb" stroke="#4a9eed"/>
  <text x="365" y="389" text-anchor="middle" font-size="13" fill="#1e293b">notification-svc</text>
  <line x1="220" y1="203" x2="150" y2="258" stroke="#22c55e" stroke-width="2" marker-end="url(#ag)"/>
  <line x1="290" y1="203" x2="365" y2="258" stroke="#22c55e" stroke-width="2" marker-end="url(#ag)"/>
  <line x1="230" y1="203" x2="150" y2="360" stroke="#22c55e" stroke-width="2" marker-end="url(#ag)"/>
  <line x1="290" y1="282" x2="225" y2="282" stroke="#4a9eed" stroke-width="2" marker-end="url(#ab)"/>
  <text x="232" y="274" font-size="11" fill="#475569">8001</text>
  <text x="58" y="440" font-size="13" fill="#475569">All other pod-to-pod traffic blocked.</text>
  <text x="58" y="462" font-size="13" fill="#475569">notification-svc: egress-only (no inbound HTTP).</text>

  <rect x="500" y="112" width="640" height="420" rx="12" fill="#edfaef" stroke="#22c55e" stroke-width="1.5"/>
  <text x="518" y="136" font-size="14" font-weight="600" fill="#15803d">Workload Identity (IRSA): SA -&gt; IAM role -&gt; resource (least privilege)</text>

  <rect x="516" y="155" width="180" height="50" rx="8" fill="#dceefb" stroke="#4a9eed"/>
  <text x="606" y="184" text-anchor="middle" font-size="13" fill="#1e293b">product-service-sa</text>
  <rect x="840" y="155" width="290" height="50" rx="8" fill="#fbe2f5" stroke="#ec4899"/>
  <text x="985" y="184" text-anchor="middle" font-size="13" fill="#1e293b">DynamoDB products (RW, this table)</text>
  <line x1="696" y1="180" x2="840" y2="180" stroke="#334155" stroke-width="2" marker-end="url(#ad)"/>

  <rect x="516" y="225" width="180" height="50" rx="8" fill="#dceefb" stroke="#4a9eed"/>
  <text x="606" y="254" text-anchor="middle" font-size="13" fill="#1e293b">order-service-sa</text>
  <rect x="840" y="225" width="290" height="50" rx="8" fill="#fbe2f5" stroke="#ec4899"/>
  <text x="985" y="254" text-anchor="middle" font-size="13" fill="#1e293b">SQS orders (SendMessage only)</text>
  <line x1="696" y1="250" x2="840" y2="250" stroke="#334155" stroke-width="2" marker-end="url(#ad)"/>

  <rect x="516" y="295" width="180" height="50" rx="8" fill="#dceefb" stroke="#4a9eed"/>
  <text x="606" y="324" text-anchor="middle" font-size="13" fill="#1e293b">notification-svc-sa</text>
  <rect x="840" y="295" width="290" height="50" rx="8" fill="#fbe2f5" stroke="#ec4899"/>
  <text x="985" y="324" text-anchor="middle" font-size="13" fill="#1e293b">SQS recv/del + SES send only</text>
  <line x1="696" y1="320" x2="840" y2="320" stroke="#334155" stroke-width="2" marker-end="url(#ad)"/>

  <rect x="516" y="365" width="180" height="50" rx="8" fill="#dceefb" stroke="#4a9eed"/>
  <text x="606" y="394" text-anchor="middle" font-size="13" fill="#1e293b">user-service-sa</text>
  <rect x="840" y="365" width="290" height="50" rx="8" fill="#fbe2f5" stroke="#ec4899"/>
  <text x="985" y="394" text-anchor="middle" font-size="13" fill="#1e293b">Secrets Manager DB creds (read)</text>
  <line x1="696" y1="390" x2="840" y2="390" stroke="#334155" stroke-width="2" marker-end="url(#ad)"/>

  <text x="518" y="448" font-size="13" fill="#475569">EKS node role: worker + CNI + ECR-read + SSM only (no admin).</text>
  <text x="518" y="472" font-size="13" fill="#475569">IMDSv2 enforced (http_tokens=required, hop-limit 1).</text>

  <rect x="40" y="552" width="200" height="52" rx="8" fill="#fff3c4" stroke="#f59e0b"/>
  <text x="140" y="583" text-anchor="middle" font-size="14" fill="#1e293b">KMS CMKs (app + rds)</text>
  <rect x="280" y="552" width="330" height="52" rx="8" fill="#d6f7ec" stroke="#06b6d4"/>
  <text x="445" y="583" text-anchor="middle" font-size="13" fill="#1e293b">Encrypts at rest: RDS, DynamoDB, SQS, Secrets, ECR, S3</text>
  <line x1="240" y1="578" x2="280" y2="578" stroke="#f59e0b" stroke-width="2" marker-end="url(#ao)"/>

  <rect x="40" y="624" width="200" height="48" rx="8" fill="#ece3ff" stroke="#8b5cf6"/>
  <text x="140" y="653" text-anchor="middle" font-size="13" fill="#1e293b">External Secrets Op.</text>
  <rect x="280" y="624" width="150" height="48" rx="8" fill="#fbe2f5" stroke="#ec4899"/>
  <text x="355" y="653" text-anchor="middle" font-size="13" fill="#1e293b">Secrets Manager</text>
  <rect x="470" y="624" width="140" height="48" rx="8" fill="#dceefb" stroke="#4a9eed"/>
  <text x="540" y="653" text-anchor="middle" font-size="13" fill="#1e293b">K8s Secret</text>
  <line x1="240" y1="648" x2="280" y2="648" stroke="#8b5cf6" stroke-width="2" marker-end="url(#apu)"/>
  <line x1="430" y1="648" x2="470" y2="648" stroke="#8b5cf6" stroke-width="2" marker-end="url(#apu)"/>

  <rect x="650" y="552" width="490" height="52" rx="8" fill="#ffe0e0" stroke="#ef4444"/>
  <text x="895" y="583" text-anchor="middle" font-size="13" fill="#1e293b">GuardDuty (EKS audit, S3, malware) -&gt; SNS email</text>
  <rect x="650" y="624" width="490" height="48" rx="8" fill="#ffe9cc" stroke="#f59e0b"/>
  <text x="895" y="653" text-anchor="middle" font-size="13" fill="#1e293b">CloudTrail audit + VPC Flow Logs</text>
</svg>
